<svg id="visual" xmlns="http://www.w3.org/2000/svg" xmlns:xlink="http://www.w3.org/1999/xlink" version="1.1" viewBox="0 570 540 391"><path d="M0 640L15 637C30 634 60 628 90 624.7C120 621.3 150 620.7 180 627.2C210 633.7 240 647.3 270 639.5C300 631.7 330 602.3 360 597.5C390 592.7 420 612.3 450 611.8C480 611.3 510 590.7 525 580.3L540 570L540 961L525 961C510 961 480 961 450 961C420 961 390 961 360 961C330 961 300 961 270 961C240 961 210 961 180 961C150 961 120 961 90 961C60 961 30 961 15 961L0 961Z" fill="#86ceff"/><path d="M0 726L15 720C30 714 60 702 90 694.8C120 687.7 150 685.3 180 678.7C210 672 240 661 270 663.5C300 666 330 682 360 685.2C390 688.3 420 678.7 450 672.8C480 667 510 665 525 664L540 663L540 961L525 961C510 961 480 961 450 961C420 961 390 961 360 961C330 961 300 961 270 961C240 961 210 961 180 961C150 961 120 961 90 961C60 961 30 961 15 961L0 961Z" fill="#44adff"/><path d="M0 787L15 776.3C30 765.7 60 744.3 90 738.5C120 732.7 150 742.3 180 746.5C210 750.7 240 749.3 270 745.3C300 741.3 330 734.7 360 739.8C390 745 420 762 450 761.7C480 761.3 510 743.7 525 734.8L540 726L540 961L525 961C510 961 480 961 450 961C420 961 390 961 360 961C330 961 300 961 270 961C240 961 210 961 180 961C150 961 120 961 90 961C60 961 30 961 15 961L0 961Z" fill="#0088ff"/><path d="M0 780L15 790.8C30 801.7 60 823.3 90 835C120 846.7 150 848.3 180 841.2C210 834 240 818 270 813.7C300 809.3 330 816.7 360 819C390 821.3 420 818.7 450 817.8C480 817 510 818 525 818.5L540 819L540 961L525 961C510 961 480 961 450 961C420 961 390 961 360 961C330 961 300 961 270 961C240 961 210 961 180 961C150 961 120 961 90 961C60 961 30 961 15 961L0 961Z" fill="#005dff"/><path d="M0 898L15 894.2C30 890.3 60 882.7 90 884.5C120 886.3 150 897.7 180 893.8C210 890 240 871 270 863.2C300 855.3 330 858.7 360 862.2C390 865.7 420 869.3 450 867.7C480 866 510 859 525 855.5L540 852L540 961L525 961C510 961 480 961 450 961C420 961 390 961 360 961C330 961 300 961 270 961C240 961 210 961 180 961C150 961 120 961 90 961C60 961 30 961 15 961L0 961Z" fill="#0716f4"/></svg>